<svg width="297" height="297" viewBox="0 0 297 297" fill="none" xmlns="http://www.w3.org/2000/svg">
<circle cx="143.5" cy="143.5" r="143.5" fill="#5865F2"/>
<path d="M207.358 88.89C195.486 83.3354 182.792 79.2986 169.521 77C167.891 79.9467 165.987 83.9101 164.674 87.063C150.566 84.9414 136.589 84.9414 122.74 87.063C121.428 83.9101 119.48 79.9467 117.836 77C104.55 79.2986 91.8419 83.3502 79.9701 88.9194C56.0244 125.104 49.5332 160.391 52.7788 195.176C68.6608 207.036 84.0524 214.241 99.1842 218.955C102.92 213.813 106.252 208.347 109.123 202.587C103.656 200.509 98.4197 197.946 93.472 194.97C94.7846 193.997 96.0685 192.98 97.309 191.934C127.486 206.049 160.274 206.049 190.091 191.934C191.346 192.98 192.63 193.997 193.928 194.97C188.966 197.96 183.715 200.524 178.248 202.601C181.119 208.347 184.436 213.828 188.187 218.97C203.333 214.255 218.739 207.051 234.621 195.176C238.429 154.851 228.116 119.889 207.358 88.89ZM113.234 173.783C104.175 173.783 96.7463 165.326 96.7463 155.028C96.7463 144.729 104.017 136.257 113.234 136.257C122.452 136.257 129.881 144.714 129.722 155.028C129.736 165.326 122.452 173.783 113.234 173.783ZM174.166 173.783C165.107 173.783 157.678 165.326 157.678 155.028C157.678 144.729 164.948 136.257 174.166 136.257C183.383 136.257 190.812 144.714 190.654 155.028C190.654 165.326 183.383 173.783 174.166 173.783Z" fill="white"/>
</svg>
